<svg width="166" height="40" viewBox="0 0 166 40" fill="none" xmlns="http://www.w3.org/2000/svg">
<path d="M24.179 16.5H21.8011C21.6605 15.8161 21.4144 15.2152 21.0629 14.6974C20.7177 14.1797 20.2958 13.745 19.7972 13.3935C19.305 13.0355 18.7585 12.767 18.1577 12.5881C17.5568 12.4091 16.9304 12.3196 16.2784 12.3196C15.0895 12.3196 14.0124 12.62 13.0472 13.2209C12.0884 13.8217 11.3246 14.707 10.7557 15.8768C10.1932 17.0465 9.91193 18.4815 9.91193 20.1818C9.91193 21.8821 10.1932 23.3171 10.7557 24.4869C11.3246 25.6566 12.0884 26.5419 13.0472 27.1428C14.0124 27.7436 15.0895 28.044 16.2784 28.044C16.9304 28.044 17.5568 27.9545 18.1577 27.7756C18.7585 27.5966 19.305 27.3313 19.7972 26.9798C20.2958 26.6218 20.7177 26.1839 21.0629 25.6662C21.4144 25.142 21.6605 24.5412 21.8011 23.8636H24.179C24 24.8672 23.674 25.7653 23.201 26.5579C22.728 27.3505 22.1399 28.0249 21.4368 28.581C20.7337 29.1307 19.9442 29.5494 19.0685 29.837C18.1992 30.1246 17.2692 30.2685 16.2784 30.2685C14.6037 30.2685 13.1143 29.8594 11.8104 29.0412C10.5064 28.223 9.48047 27.0597 8.7326 25.5511C7.98473 24.0426 7.6108 22.2528 7.6108 20.1818C7.6108 18.1108 7.98473 16.321 8.7326 14.8125C9.48047 13.304 10.5064 12.1406 11.8104 11.3224C13.1143 10.5043 14.6037 10.0952 16.2784 10.0952C17.2692 10.0952 18.1992 10.239 19.0685 10.5266C19.9442 10.8143 20.7337 11.2362 21.4368 11.7923C22.1399 12.342 22.728 13.0131 23.201 13.8058C23.674 14.592 24 15.4901 24.179 16.5ZM35.6151 10.3636H37.9546V25.8196H38.1464L48.885 10.3636H51.1862V30H48.8083V14.5824H48.6166L37.9163 30H35.6151V10.3636ZM63.538 30V10.3636H75.3888V12.473H65.9158V18.6094H70.9016C72.3079 18.6094 73.4936 18.8395 74.4588 19.2997C75.4304 19.7599 76.1655 20.4087 76.6641 21.2461C77.169 22.0835 77.4215 23.071 77.4215 24.2088C77.4215 25.3466 77.169 26.3501 76.6641 27.2195C76.1655 28.0888 75.4304 28.7695 74.4588 29.2617C73.4936 29.7539 72.3079 30 70.9016 30H63.538ZM65.9158 27.929H70.9016C71.7965 27.929 72.554 27.75 73.174 27.392C73.8004 27.0277 74.2734 26.5611 74.593 25.9922C74.919 25.4169 75.082 24.8097 75.082 24.1705C75.082 23.2308 74.7209 22.4222 73.9986 21.7447C73.2763 21.0607 72.244 20.7188 70.9016 20.7188H65.9158V27.929ZM88.9296 10.3636H91.2691V25.8196H91.4608L102.199 10.3636H104.501V30H102.123V14.5824H101.931L91.2307 30H88.9296V10.3636ZM116.852 30V10.3636H123.487C125.028 10.3636 126.287 10.6417 127.265 11.1978C128.249 11.7475 128.978 12.4922 129.451 13.4318C129.924 14.3714 130.161 15.4197 130.161 16.5767C130.161 17.7337 129.924 18.7852 129.451 19.7312C128.985 20.6772 128.262 21.4315 127.284 21.994C126.306 22.5501 125.053 22.8281 123.526 22.8281H118.77V20.7188H123.449C124.504 20.7188 125.351 20.5366 125.99 20.1722C126.629 19.8079 127.093 19.3157 127.38 18.6957C127.674 18.0692 127.821 17.3629 127.821 16.5767C127.821 15.7905 127.674 15.0874 127.38 14.4673C127.093 13.8473 126.626 13.3615 125.98 13.0099C125.335 12.652 124.478 12.473 123.411 12.473H119.23V30H116.852ZM158.153 20.1818C158.153 22.2528 157.779 24.0426 157.031 25.5511C156.283 27.0597 155.257 28.223 153.953 29.0412C152.65 29.8594 151.16 30.2685 149.485 30.2685C147.811 30.2685 146.321 29.8594 145.017 29.0412C143.713 28.223 142.688 27.0597 141.94 25.5511C141.192 24.0426 140.818 22.2528 140.818 20.1818C140.818 18.1108 141.192 16.321 141.94 14.8125C142.688 13.304 143.713 12.1406 145.017 11.3224C146.321 10.5043 147.811 10.0952 149.485 10.0952C151.16 10.0952 152.65 10.5043 153.953 11.3224C155.257 12.1406 156.283 13.304 157.031 14.8125C157.779 16.321 158.153 18.1108 158.153 20.1818ZM155.852 20.1818C155.852 18.4815 155.567 17.0465 154.999 15.8768C154.436 14.707 153.672 13.8217 152.707 13.2209C151.748 12.62 150.674 12.3196 149.485 12.3196C148.297 12.3196 147.219 12.62 146.254 13.2209C145.295 13.8217 144.532 14.707 143.963 15.8768C143.4 17.0465 143.119 18.4815 143.119 20.1818C143.119 21.8821 143.4 23.3171 143.963 24.4869C144.532 25.6566 145.295 26.5419 146.254 27.1428C147.219 27.7436 148.297 28.044 149.485 28.044C150.674 28.044 151.748 27.7436 152.707 27.1428C153.672 26.5419 154.436 25.6566 154.999 24.4869C155.567 23.3171 155.852 21.8821 155.852 20.1818Z" fill="black"/>
</svg>
